<svg width="92" height="38" viewBox="0 0 92 38" fill="none" xmlns="http://www.w3.org/2000/svg">
<g clip-path="url(#clip0_0_502)">
<rect width="92" height="38" rx="19" fill="#EF6D58"/>
<path d="M19.496 24H18.128V12.2H21.44C22.352 12.2 23.1093 12.3707 23.712 12.712C24.3147 13.048 24.7653 13.5013 25.064 14.072C25.3627 14.6427 25.512 15.2773 25.512 15.976C25.512 16.6747 25.3573 17.32 25.048 17.912C24.744 18.504 24.288 18.9813 23.68 19.344C23.0773 19.7013 22.3307 19.88 21.44 19.88H19.496V24ZM19.496 19.376L18.88 18.68H21.272C21.912 18.68 22.4427 18.568 22.864 18.344C23.2907 18.1147 23.608 17.7973 23.816 17.392C24.0293 16.9867 24.136 16.5147 24.136 15.976C24.136 15.432 24.0347 14.968 23.832 14.584C23.6293 14.2 23.3173 13.9067 22.896 13.704C22.4747 13.5013 21.9333 13.4 21.272 13.4H18.88L19.496 12.624V19.376ZM31.0293 24.152C30.1759 24.152 29.4213 23.9627 28.7653 23.584C28.1146 23.2 27.6026 22.6773 27.2293 22.016C26.8613 21.3493 26.6773 20.592 26.6773 19.744C26.6773 18.896 26.8613 18.144 27.2293 17.488C27.6026 16.832 28.1146 16.3173 28.7653 15.944C29.4213 15.5707 30.1759 15.384 31.0293 15.384C31.8826 15.384 32.6346 15.5707 33.2853 15.944C33.9413 16.3173 34.4533 16.832 34.8212 17.488C35.1946 18.144 35.3813 18.896 35.3813 19.744C35.3813 20.592 35.1946 21.3493 34.8212 22.016C34.4533 22.6773 33.9413 23.2 33.2853 23.584C32.6346 23.9627 31.8826 24.152 31.0293 24.152ZM31.0293 22.904C31.6159 22.904 32.1333 22.7733 32.5813 22.512C33.0293 22.2507 33.3786 21.8827 33.6293 21.408C33.8853 20.9333 34.0133 20.3787 34.0133 19.744C34.0133 19.1093 33.8853 18.56 33.6293 18.096C33.3786 17.6267 33.0293 17.2667 32.5813 17.016C32.1333 16.76 31.6159 16.632 31.0293 16.632C30.4479 16.632 29.9306 16.76 29.4773 17.016C29.0293 17.2667 28.6773 17.6267 28.4213 18.096C28.1706 18.56 28.0453 19.1093 28.0453 19.744C28.0453 20.3787 28.1706 20.9333 28.4213 21.408C28.6773 21.8827 29.0293 22.2507 29.4773 22.512C29.9306 22.7733 30.4479 22.904 31.0293 22.904ZM37.5053 27.496V15.504H38.8653V27.496H37.5053ZM41.6573 24.16C41.0013 24.16 40.3879 24 39.8173 23.68C39.2466 23.3547 38.7826 22.9093 38.4253 22.344C38.0733 21.7787 37.8973 21.1333 37.8973 20.408C37.8973 20.392 37.8973 20.3787 37.8973 20.368C37.8973 20.3573 37.8973 20.344 37.8973 20.328L38.8733 20.304C38.8733 20.3147 38.8733 20.328 38.8733 20.344C38.8733 20.3547 38.8733 20.3653 38.8733 20.376C38.8733 20.8347 38.9933 21.2533 39.2333 21.632C39.4786 22.0107 39.7986 22.312 40.1933 22.536C40.5879 22.76 41.0119 22.872 41.4653 22.872C42.2173 22.872 42.8413 22.616 43.3373 22.104C43.8386 21.5867 44.0893 20.8 44.0893 19.744C44.0893 18.6827 43.8413 17.8987 43.3453 17.392C42.8493 16.88 42.2226 16.624 41.4653 16.624C41.0119 16.624 40.5879 16.736 40.1933 16.96C39.7986 17.1787 39.4786 17.4747 39.2333 17.848C38.9933 18.2213 38.8733 18.64 38.8733 19.104L37.8973 19.072C37.8973 18.3413 38.0733 17.6987 38.4253 17.144C38.7826 16.5893 39.2466 16.1573 39.8173 15.848C40.3879 15.5333 41.0013 15.376 41.6573 15.376C42.3453 15.376 42.9799 15.5467 43.5613 15.888C44.1426 16.224 44.6093 16.7173 44.9613 17.368C45.3133 18.0187 45.4893 18.8107 45.4893 19.744C45.4893 20.6933 45.3159 21.4987 44.9693 22.16C44.6226 22.816 44.1586 23.3147 43.5773 23.656C42.9959 23.992 42.3559 24.16 41.6573 24.16ZM50.7506 24.152C50.1426 24.152 49.636 24.048 49.2306 23.84C48.8253 23.6267 48.5026 23.352 48.2626 23.016C48.028 22.68 47.86 22.3173 47.7586 21.928C47.6626 21.5333 47.6146 21.1547 47.6146 20.792C47.6146 20.5893 47.6146 20.3813 47.6146 20.168C47.6146 19.9493 47.6146 19.7307 47.6146 19.512V15.504H48.9826V19.336C48.9826 19.5333 48.9826 19.728 48.9826 19.92C48.9826 20.112 48.9826 20.2933 48.9826 20.464C48.9826 20.896 49.0413 21.296 49.1586 21.664C49.2813 22.032 49.492 22.3307 49.7906 22.56C50.0893 22.784 50.5 22.896 51.0226 22.896C51.5133 22.896 51.9426 22.7493 52.3106 22.456C52.6786 22.1573 52.9666 21.7867 53.1746 21.344C53.3826 20.896 53.4866 20.4507 53.4866 20.008L54.2786 20.336C54.2786 20.8053 54.196 21.2667 54.0306 21.72C53.8653 22.168 53.628 22.576 53.3186 22.944C53.0146 23.312 52.644 23.6053 52.2066 23.824C51.7746 24.0427 51.2893 24.152 50.7506 24.152ZM53.4866 24V15.504H54.8466V24H53.4866ZM58.6724 11.496V24H57.3284V11.496H58.6724ZM64.1295 24.16C63.4842 24.16 62.9188 24.0587 62.4335 23.856C61.9535 23.6533 61.5802 23.3627 61.3135 22.984C61.0468 22.6 60.9135 22.1413 60.9135 21.608C60.9135 21.0533 61.0575 20.592 61.3455 20.224C61.6335 19.8507 62.0388 19.56 62.5615 19.352C63.0842 19.144 63.6922 19.0053 64.3855 18.936C65.4308 18.8293 66.1748 18.7253 66.6175 18.624C67.0602 18.5173 67.2815 18.3467 67.2815 18.112C67.2815 18.1067 67.2815 18.104 67.2815 18.104C67.2815 18.0987 67.2815 18.0933 67.2815 18.088C67.2815 17.5973 67.0815 17.232 66.6815 16.992C66.2815 16.7467 65.7028 16.624 64.9455 16.624C64.1562 16.624 63.5428 16.7627 63.1055 17.04C62.6682 17.312 62.4495 17.7547 62.4495 18.368H61.1055C61.1055 17.7333 61.2682 17.1947 61.5935 16.752C61.9188 16.304 62.3695 15.9627 62.9455 15.728C63.5268 15.4933 64.1962 15.376 64.9535 15.376C65.6468 15.376 66.2708 15.4827 66.8255 15.696C67.3855 15.904 67.8282 16.216 68.1535 16.632C68.4842 17.0427 68.6495 17.552 68.6495 18.16C68.6495 18.272 68.6495 18.384 68.6495 18.496C68.6495 18.6027 68.6495 18.712 68.6495 18.824V22.4C68.6495 22.5867 68.6575 22.768 68.6735 22.944C68.6895 23.12 68.7162 23.2747 68.7535 23.408C68.8015 23.568 68.8548 23.6987 68.9135 23.8C68.9722 23.896 69.0202 23.9627 69.0575 24H67.6895C67.6628 23.9733 67.6228 23.912 67.5695 23.816C67.5162 23.7147 67.4655 23.5973 67.4175 23.464C67.3802 23.3573 67.3508 23.224 67.3295 23.064C67.3082 22.8987 67.2975 22.728 67.2975 22.552L67.5215 22.704C67.3562 22.992 67.1135 23.2453 66.7935 23.464C66.4788 23.6827 66.0975 23.8533 65.6495 23.976C65.2015 24.0987 64.6948 24.16 64.1295 24.16ZM64.3455 22.936C64.8948 22.936 65.3908 22.8533 65.8335 22.688C66.2762 22.5173 66.6282 22.2667 66.8895 21.936C67.1508 21.6053 67.2815 21.1947 67.2815 20.704V19.016L67.5855 19.528C67.2442 19.6613 66.8175 19.7707 66.3055 19.856C65.7988 19.936 65.2682 20.0027 64.7135 20.056C63.9082 20.1307 63.3002 20.272 62.8895 20.48C62.4842 20.688 62.2815 21.0373 62.2815 21.528C62.2815 21.992 62.4495 22.344 62.7855 22.584C63.1215 22.8187 63.6415 22.936 64.3455 22.936ZM70.9115 24V15.504H72.2715V18.112L71.8235 17.952C71.8555 17.6373 71.9355 17.328 72.0635 17.024C72.1915 16.7147 72.3675 16.4373 72.5915 16.192C72.8208 15.9413 73.1062 15.744 73.4475 15.6C73.7888 15.4507 74.1888 15.376 74.6475 15.376C74.9888 15.376 75.2662 15.4053 75.4795 15.464C75.6982 15.5173 75.8342 15.56 75.8875 15.592L75.5355 16.928C75.4822 16.8907 75.3728 16.8427 75.2075 16.784C75.0475 16.7253 74.8182 16.696 74.5195 16.696C74.0768 16.696 73.7088 16.776 73.4155 16.936C73.1275 17.096 72.8982 17.3093 72.7275 17.576C72.5622 17.8373 72.4448 18.1227 72.3755 18.432C72.3062 18.7413 72.2715 19.048 72.2715 19.352V24H70.9115Z" fill="white"/>
</g>
<defs>
<clipPath id="clip0_0_502">
<rect width="92" height="38" fill="white"/>
</clipPath>
</defs>
</svg>
